<svg width="17" height="17" viewBox="0 0 17 17" fill="none" xmlns="http://www.w3.org/2000/svg">
<path fill-rule="evenodd" clip-rule="evenodd" d="M2.125 14.3438V7.4375H3.1875V14.3438C3.1875 14.4846 3.24347 14.6198 3.3431 14.7194C3.44273 14.819 3.57785 14.875 3.71875 14.875H13.2812C13.4221 14.875 13.5573 14.819 13.6569 14.7194C13.7565 14.6198 13.8125 14.4846 13.8125 14.3438V7.4375H14.875V14.3438C14.875 14.7664 14.7071 15.1718 14.4082 15.4707C14.1093 15.7696 13.7039 15.9375 13.2812 15.9375H3.71875C3.29606 15.9375 2.89068 15.7696 2.5918 15.4707C2.29291 15.1718 2.125 14.7664 2.125 14.3438ZM13.8125 2.65625V6.375L11.6875 4.25V2.65625C11.6875 2.51535 11.7435 2.38023 11.8431 2.2806C11.9427 2.18097 12.0779 2.125 12.2188 2.125H13.2812C13.4221 2.125 13.5573 2.18097 13.6569 2.2806C13.7565 2.38023 13.8125 2.51535 13.8125 2.65625Z" fill="white"/>
<path fill-rule="evenodd" clip-rule="evenodd" d="M7.74949 1.59234C7.94873 1.39315 8.21894 1.28125 8.50067 1.28125C8.78241 1.28125 9.05261 1.39315 9.25186 1.59234L16.3143 8.65371C16.4141 8.75347 16.4701 8.88876 16.4701 9.02984C16.4701 9.17091 16.4141 9.30621 16.3143 9.40596C16.2145 9.50572 16.0792 9.56176 15.9382 9.56176C15.7971 9.56176 15.6618 9.50572 15.562 9.40596L8.50067 2.34352L1.4393 9.40596C1.33954 9.50572 1.20425 9.56176 1.06317 9.56176C0.922097 9.56176 0.786801 9.50572 0.687046 9.40596C0.587292 9.30621 0.53125 9.17091 0.53125 9.02984C0.53125 8.88876 0.587292 8.75347 0.687046 8.65371L7.74949 1.59234Z" fill="white"/>
</svg>
