<svg width="40" height="40" viewBox="0 0 40 40" fill="none" xmlns="http://www.w3.org/2000/svg">
<rect width="40" height="40" rx="6" fill="white"/>
<path fill-rule="evenodd" clip-rule="evenodd" d="M10.3027 28.8998V18.3786H11.8379V28.8998C11.8379 29.1144 11.9188 29.3203 12.0627 29.4721C12.2067 29.6239 12.4019 29.7091 12.6055 29.7091H26.4221C26.6257 29.7091 26.821 29.6239 26.9649 29.4721C27.1089 29.3203 27.1897 29.1144 27.1897 28.8998V18.3786H28.7249V28.8998C28.7249 29.5437 28.4823 30.1613 28.0504 30.6166C27.6186 31.072 27.0329 31.3278 26.4221 31.3278H12.6055C11.9948 31.3278 11.4091 31.072 10.9772 30.6166C10.5453 30.1613 10.3027 29.5437 10.3027 28.8998ZM27.1897 11.0947V16.76L24.1194 13.5227V11.0947C24.1194 10.8801 24.2002 10.6742 24.3442 10.5224C24.4881 10.3707 24.6834 10.2854 24.887 10.2854H26.4221C26.6257 10.2854 26.821 10.3707 26.9649 10.5224C27.1089 10.6742 27.1897 10.8801 27.1897 11.0947Z" fill="black"/>
<path fill-rule="evenodd" clip-rule="evenodd" d="M18.4295 9.47392C18.7173 9.17047 19.1078 9 19.5148 9C19.9219 9 20.3123 9.17047 20.6002 9.47392L30.8046 20.2314C30.9487 20.3834 31.0297 20.5895 31.0297 20.8044C31.0297 21.0193 30.9487 21.2255 30.8046 21.3774C30.6604 21.5294 30.4649 21.6148 30.2611 21.6148C30.0573 21.6148 29.8618 21.5294 29.7176 21.3774L19.5148 10.6183L9.31201 21.3774C9.16788 21.5294 8.9724 21.6148 8.76856 21.6148C8.56473 21.6148 8.36924 21.5294 8.22511 21.3774C8.08097 21.2255 8 21.0193 8 20.8044C8 20.5895 8.08097 20.3834 8.22511 20.2314L18.4295 9.47392Z" fill="black"/>
</svg>
