<svg width="54" height="34" viewBox="0 0 54 34" fill="none" xmlns="http://www.w3.org/2000/svg">
<path d="M34.2139 3.89648H19.7461V30.1031H34.2139V3.89648Z" fill="#FF5F00"/>
<path d="M20.6639 16.9999C20.6616 14.476 21.229 11.9847 22.3232 9.7145C23.4173 7.44432 25.0095 5.45482 26.9792 3.89659C24.54 1.96401 21.6106 0.762177 18.5258 0.42844C15.441 0.0947029 12.3253 0.642521 9.53473 2.0093C6.74421 3.37609 4.39148 5.50668 2.74546 8.15755C1.09944 10.8084 0.226563 13.8726 0.226562 16.9999C0.226562 20.1272 1.09944 23.1914 2.74546 25.8422C4.39148 28.4931 6.74421 30.6237 9.53473 31.9905C12.3253 33.3573 15.441 33.9051 18.5258 33.5713C21.6106 33.2376 24.54 32.0358 26.9792 30.1032C25.0095 28.545 23.4173 26.5554 22.3232 24.2853C21.2291 22.0151 20.6617 19.5238 20.6639 16.9999Z" fill="#EB001B"/>
<path d="M53.7323 16.9999C53.7324 20.1271 52.8596 23.1913 51.2137 25.8422C49.5678 28.493 47.2151 30.6236 44.4246 31.9904C41.6342 33.3572 38.5185 33.9051 35.4337 33.5713C32.349 33.2376 29.4196 32.0358 26.9805 30.1032C28.9484 28.5434 30.5394 26.5536 31.6333 24.2837C32.7273 22.0139 33.2957 19.5234 33.2957 16.9999C33.2957 14.4764 32.7273 11.9858 31.6333 9.71603C30.5394 7.44622 28.9484 5.45639 26.9805 3.89658C29.4196 1.96401 32.349 0.762168 35.4337 0.428435C38.5185 0.0947027 41.6342 0.642545 44.4246 2.00934C47.2151 3.37614 49.5678 5.50673 51.2137 8.15761C52.8596 10.8085 53.7324 13.8727 53.7323 16.9999Z" fill="#F79E1B"/>
<path d="M52.1523 27.3276V26.791H52.3669V26.6817H51.8203V26.791H52.035V27.3276H52.1523ZM53.2135 27.3276V26.6807H53.046L52.8532 27.1256L52.6605 26.6807H52.4928V27.3276H52.6111V26.8396L52.7919 27.2603H52.9145L53.0953 26.8385V27.3276H53.2135Z" fill="#F79E1B"/>
</svg>
