<svg width="37" height="21" viewBox="0 0 37 21" fill="none" xmlns="http://www.w3.org/2000/svg">
<path d="M12.5332 2.29004H23.1482V18.7409H12.5332V2.29004Z" fill="#FF5F00"/>
<path d="M13.6279 10.5167C13.6252 7.30768 15.1779 4.27449 17.838 2.29262C13.3187 -1.07789 6.8265 -0.587009 2.92564 3.42137C-0.975214 7.42843 -0.975214 13.6077 2.92564 17.6161C6.8265 21.6244 13.3174 22.1153 17.838 18.7448C15.1766 16.7616 13.6226 13.7271 13.6279 10.5167Z" fill="#EB001B"/>
<path d="M34.7297 17.4075V16.7328H34.9583V16.5937H34.4139V16.7328H34.628V17.4075H34.7297ZM35.7869 17.4075V16.5937H35.6217L35.4287 17.1751L35.2371 16.5937H35.072V17.4075H35.1909V16.7906L35.3693 17.3195H35.4935L35.6719 16.7919V17.4075H35.7855H35.7869ZM35.6785 10.5168C35.6785 14.5226 33.2682 18.1766 29.4704 19.9275C25.674 21.677 21.1573 21.2163 17.8379 18.741C20.4979 16.7578 22.0506 13.7259 22.0506 10.5155C22.0506 7.30515 20.4979 4.27327 17.8392 2.29008C21.1586 -0.185293 25.6753 -0.64598 29.4717 1.10489C33.2682 2.85446 35.6785 6.50846 35.6785 10.5129V10.5155V10.5168Z" fill="#F79E1B"/>
</svg>
