<svg width="69" height="21" viewBox="0 0 69 21" fill="none" xmlns="http://www.w3.org/2000/svg">
<path fill-rule="evenodd" clip-rule="evenodd" d="M5.98979 19.7655H0V0.0015H5.98979C8.67051 0.0015 9.26068 2.064 9.56311 3.093L12.0354 11.628C12.0809 11.796 12.1323 11.904 12.2776 11.913C12.4229 11.904 12.4729 11.796 12.5198 11.628L14.9906 3.093C15.296 2.064 15.8862 0.0015 18.5669 0.0015H24.5567V19.7655H18.5669V8.1345C18.4612 7.8285 18.0369 7.8855 17.9679 8.1345L14.374 19.7655H10.1812L6.5873 8.1345C6.5183 7.8855 6.09549 7.8285 5.98979 8.1345V19.7655ZM33.2874 0V11.6325C33.3931 11.9385 33.8159 11.883 33.8863 11.6325L38.0469 2.7195C38.5328 1.6485 39.192 0.0735 40.5397 0H46.5295V19.764H40.5397V8.034C40.434 7.728 40.0009 7.7835 39.9319 8.034L35.9314 17.049C34.9228 19.2675 34.3165 19.7655 33.2874 19.7655H27.2976V0.0015H33.2874V0ZM49.4451 9.0195H68.266C67.6317 10.935 65.4516 13.4325 62.0824 13.4325H55.4349V19.7655H49.4451V9.0195Z" fill="#3CA436"/>
<path fill-rule="evenodd" clip-rule="evenodd" d="M68.5361 8.03295H58.6118C53.8141 8.03295 49.4245 5.32545 48.6641 0.00195312H62.0824C66.171 0.00195312 69.3244 3.81945 68.5346 8.03295H68.5361Z" fill="url(#paint0_linear_453_554)"/>
<defs>
<linearGradient id="paint0_linear_453_554" x1="48.6641" y1="3.39666" x2="69.9247" y2="11.3494" gradientUnits="userSpaceOnUse">
<stop stop-color="#00A5E2"/>
<stop offset="1" stop-color="#007CC4"/>
</linearGradient>
</defs>
</svg>
