<svg width="40" height="40" viewBox="0 0 40 40" fill="none" xmlns="http://www.w3.org/2000/svg">
<path d="M14.903 16.1546V17.3035C14.3955 17.3146 13.9122 17.5408 13.5565 17.9338C13.2008 18.3268 13.001 18.8552 13 19.406V25.8939C13.0006 26.4523 13.2053 26.9877 13.5693 27.3826C13.9332 27.7774 14.4267 27.9995 14.9414 28H24.2809C24.7955 27.9995 25.289 27.7774 25.6529 27.3826C26.0169 26.9877 26.2216 26.4523 26.2222 25.8939V19.4052C26.2213 18.8544 26.0216 18.3259 25.6659 17.9329C25.3101 17.5399 24.8267 17.3137 24.3192 17.3027V16.1538C24.3247 15.4791 24.2069 14.81 23.9728 14.1849C23.7386 13.5599 23.3927 12.9914 22.955 12.5123C22.5173 12.0331 21.9964 11.6528 21.4225 11.3932C20.8485 11.1336 20.2329 11 19.6111 11C18.9893 11 18.3737 11.1336 17.7998 11.3932C17.2258 11.6528 16.705 12.0331 16.2672 12.5123C15.8295 12.9914 15.4836 13.5599 15.2494 14.1849C15.0153 14.81 14.8975 15.4791 14.903 16.1538V16.1546ZM24.9439 19.4032V25.8939C24.9437 26.0847 24.8738 26.2677 24.7494 26.4025C24.625 26.5374 24.4564 26.6133 24.2805 26.6134H14.9414C14.7655 26.6133 14.5969 26.5374 14.4725 26.4025C14.3481 26.2677 14.2781 26.0847 14.2779 25.8939V19.4052C14.2781 19.2144 14.3481 19.0314 14.4725 18.8964C14.5968 18.7615 14.7655 18.6856 14.9414 18.6854H24.2809C24.4568 18.6856 24.6254 18.7615 24.7498 18.8964C24.8741 19.0314 24.9441 19.2144 24.9443 19.4052L24.9439 19.4032ZM23.0409 16.1546V17.2987H16.181V16.1546C16.1763 15.6625 16.2615 15.1744 16.4318 14.7184C16.6021 14.2624 16.854 13.8475 17.173 13.4978C17.492 13.1481 17.8717 12.8705 18.2902 12.681C18.7087 12.4916 19.1577 12.394 19.6111 12.394C20.0646 12.394 20.5135 12.4916 20.932 12.681C21.3505 12.8705 21.7302 13.1481 22.0492 13.4978C22.3682 13.8475 22.6201 14.2624 22.7904 14.7184C22.9607 15.1744 23.0456 15.6625 23.0409 16.1546Z" fill="white"/>
<path d="M19.5108 20.5884C19.2319 20.5873 18.9604 20.6863 18.7386 20.8699C18.5168 21.0534 18.357 21.3114 18.2842 21.6036C18.2113 21.8957 18.2294 22.2059 18.3357 22.4857C18.442 22.7656 18.6305 22.9996 18.8719 23.1513V24.1572C18.8719 24.3411 18.9392 24.5174 19.059 24.6474C19.1788 24.7775 19.3414 24.8505 19.5108 24.8505C19.6803 24.8505 19.8428 24.7775 19.9627 24.6474C20.0825 24.5174 20.1498 24.3411 20.1498 24.1572V23.1513C20.3912 22.9996 20.5797 22.7656 20.686 22.4857C20.7922 22.2059 20.8104 21.8957 20.7375 21.6036C20.6647 21.3114 20.5049 21.0534 20.2831 20.8699C20.0613 20.6863 19.7898 20.5873 19.5108 20.5884Z" fill="white"/>
<circle cx="20" cy="20" r="19" stroke="white" stroke-width="2"/>
</svg>
