<svg width="55" height="55" viewBox="0 0 55 55" fill="none" xmlns="http://www.w3.org/2000/svg">
<circle cx="27.5" cy="27.5" r="26.5" stroke="white" stroke-width="2"/>
<path d="M34.5365 30.0241L33.758 24.5825C33.6817 24.0479 33.4302 23.5605 33.0492 23.2081C32.6681 22.8558 32.1825 22.6619 31.6802 22.6614H20.5614C20.0587 22.6613 19.5727 22.855 19.1911 23.2074C18.8096 23.5598 18.5579 24.0476 18.4815 24.5825L17.0244 34.777C16.9783 35.0998 16.9976 35.4296 17.0809 35.7437C17.1643 36.0577 17.3097 36.3487 17.5073 36.5966C17.7048 36.8445 17.9498 37.0434 18.2255 37.1798C18.5011 37.3162 18.8009 37.3868 19.1043 37.3868H26.1203" stroke="white" stroke-linecap="round" stroke-linejoin="round"/>
<path d="M28.2246 35.1236L31.3807 38.5218L36.6408 32.8582" stroke="white" stroke-linecap="round" stroke-linejoin="round"/>
<path d="M28.2218 19.2654C28.2218 18.6646 28.0001 18.0884 27.6055 17.6635C27.2109 17.2387 26.6758 17 26.1177 17C25.5597 17 25.0245 17.2387 24.6299 17.6635C24.2353 18.0884 24.0137 18.6646 24.0137 19.2654" stroke="white" stroke-linecap="round" stroke-linejoin="round"/>
</svg>
