<svg width="105" height="34" viewBox="0 0 105 34" fill="none" xmlns="http://www.w3.org/2000/svg">
<g clip-path="url(#clip0_821_616)">
<path d="M37.3422 15.7066L37.8333 14.144L36.2085 14.1947C36.0712 14.1947 35.0734 14.1666 34.1055 13.469C34.1776 13.4761 34.2497 13.4859 34.3234 13.4859C35.3197 13.4859 36.2835 12.8896 36.6699 12.0373L37.3691 10.4973C36.493 10.5085 35.692 10.3988 35.692 10.3988C35.6848 10.3974 35.0536 10.3172 34.3234 9.57613C33.7996 9.04448 33.1515 8.7632 32.4495 8.7632C32.1425 8.7632 31.8678 8.81804 31.6315 8.89261C31.6683 8.76746 31.7036 8.64085 31.7236 8.51004C31.9471 7.06851 31.0131 5.96869 31.0131 5.97009L29.7917 4.46665L29.0345 6.23312C29.0316 6.23877 28.8406 6.6522 28.4981 6.85476C28.3948 6.33579 28.1415 5.75208 27.5994 5.19381C26.5775 4.14182 25.3335 3.9857 24.6825 3.9857C24.381 3.9857 24.166 4.01807 24.1135 4.02649L22.6389 4.31478C22.7237 3.98708 22.9049 3.41753 23.2361 2.9042L24.0499 1.64402L22.0019 1.87608L21.3495 0.499264L20.0871 1.14623L18.9195 0L17.7547 1.14623L16.488 0.499264L15.837 1.87608L13.7905 1.64402L14.6056 2.9042C14.9369 3.41753 15.118 3.9857 15.2016 4.31339L13.7947 4.03777L13.7466 4.02926C13.6758 4.01807 13.4622 3.9857 13.1593 3.9857C12.5082 3.9857 11.2642 4.14321 10.2452 5.19381C9.70169 5.7507 9.44839 6.33579 9.34367 6.85476C9.00405 6.65507 8.81433 6.24718 8.81433 6.24718L8.05576 4.4709L6.81462 5.98415C6.66311 6.17967 5.91449 7.21331 6.11825 8.51283C6.13953 8.64225 6.17347 8.76886 6.21028 8.89401C5.97535 8.81944 5.70075 8.7646 5.39368 8.7646C4.69168 8.7646 4.04351 9.04588 3.51844 9.57752C2.7909 10.3159 2.16252 10.3988 2.16825 10.3988C2.16825 10.3988 1.50445 10.517 0.476974 10.4987L1.17186 12.0387C1.55828 12.8923 2.52342 13.4873 3.51844 13.4873C3.59345 13.4873 3.66558 13.4774 3.73921 13.4704C2.77398 14.168 1.77619 14.1961 1.65586 14.1975L0 14.144L0.501021 15.7052C0.752964 16.5096 1.595 17.8428 3.2085 17.9863C3.03295 18.7176 2.64375 19.5362 1.78895 19.8892L0.556238 20.3941L1.22846 21.5572C1.60777 22.1845 2.49799 22.9185 3.76603 22.9185C4.04064 22.9171 4.30525 22.8904 4.56006 22.837C4.62518 23.1239 4.70722 23.4107 4.8035 23.6949C5.18133 24.8115 4.85585 25.5907 4.85159 25.5991L4.24301 26.8663L5.6017 27.2221C5.61871 27.2277 6.02909 27.3388 6.54288 27.3388C6.77642 27.3388 6.99855 27.3149 7.20807 27.2657C7.36651 27.2291 7.51803 27.18 7.66374 27.1208C7.83925 27.4344 8.05296 27.72 8.30207 27.9759C9.1725 28.8634 10.4052 29.3134 11.9676 29.3134H11.9733L13.0886 29.2993L10.7844 30.2501L12.5338 31.0897C13.1692 31.3977 13.9235 31.7619 14.6906 32.0404L14.4727 32.6339L15.0756 32.9068C15.1293 32.9306 16.2884 33.4468 18.2161 33.5565C18.2161 33.5565 18.6817 33.5776 18.9378 33.5776C19.194 33.5776 19.654 33.555 19.654 33.555C21.5689 33.4426 22.7195 32.932 22.7733 32.9068L23.3776 32.6325L23.1568 32.0375C23.9466 31.7506 24.7277 31.3723 25.3363 31.0771L27.0531 30.2487L24.756 29.2965L25.8755 29.3105C27.4395 29.3105 28.6736 28.8606 29.5425 27.9717C29.7902 27.7171 30.004 27.4316 30.1809 27.118C30.3267 27.1771 30.4795 27.2263 30.638 27.2629C30.846 27.3121 31.0682 27.336 31.3018 27.336C31.807 27.336 32.2217 27.2249 32.233 27.2221L33.5973 26.8634L33.0029 25.6202C32.9887 25.5879 32.6633 24.8102 33.0411 23.692C33.1373 23.4066 33.218 23.1197 33.2831 22.8342C33.5394 22.8876 33.8068 22.9157 34.0828 22.9157C35.6976 22.9157 36.4717 21.7863 36.6218 21.5417L37.287 20.3912L36.0542 19.8878C35.198 19.5348 34.8103 18.7148 34.6362 17.9849C36.2269 17.8499 37.0817 16.5166 37.3422 15.7066ZM15.309 4.85206L15.2922 4.85622L15.3063 4.838L15.309 4.85206Z" fill="white"/>
<path d="M18.9223 4.7832C17.6174 4.78459 16.6396 5.20931 16.4258 5.70857L18.9223 6.6874L21.4189 5.70857C21.2066 5.20931 20.2287 4.78459 18.9223 4.7832Z" fill="white"/>
<path d="M18.9448 30.6959H18.9419H18.9207H18.8966H18.8952C18.104 30.7016 17.0157 30.5398 16.4906 30.3879L15.8594 32.0854C16.2755 32.2331 17.6852 32.5144 18.9207 32.5144C20.1534 32.5144 21.5644 32.2318 21.9791 32.0854L21.3492 30.3879C20.8228 30.5413 19.7358 30.7016 18.9448 30.6959Z" fill="white"/>
<path d="M23.7224 29.0083C23.2525 29.2727 22.2037 29.6693 21.5938 29.8535L22.1061 31.2557C23.05 30.9997 23.8284 30.7002 24.4725 30.3795L23.4095 30.0279L23.7224 29.0083Z" fill="white"/>
<path d="M14.1212 29.0083L14.4354 30.0279L13.3711 30.3795C14.0136 30.7002 14.7963 30.9997 15.736 31.2557L16.2483 29.8535C15.6412 29.6693 14.591 29.2713 14.1212 29.0083Z" fill="white"/>
<path d="M18.9192 3.16011C19.9028 3.16011 20.868 3.39356 21.6096 3.80422C21.6776 3.57781 21.7724 3.30357 21.9012 3.01666L21.621 3.05042L21.3266 3.08132L21.202 2.8155L20.8269 2.02794L20.1434 2.38237L19.8773 2.5174L19.665 2.3092L18.922 1.57788L18.1804 2.3092L17.9681 2.5174L17.7021 2.38237L17.0142 2.02794L16.6435 2.8155L16.5161 3.08132L16.2216 3.05042L15.9414 3.01666C16.0703 3.30496 16.1636 3.57781 16.233 3.80422C16.976 3.39356 17.9384 3.16011 18.9192 3.16011Z" fill="white"/>
<path d="M33.9392 12.2622C34.0667 12.3059 34.1968 12.3256 34.3257 12.3256C34.8818 12.3256 35.4196 11.9683 35.605 11.5591C35.605 11.5591 34.5846 11.4972 33.4877 10.3904C33.1383 10.0317 32.7688 9.9248 32.4518 9.9248C31.9593 9.9248 31.5898 10.1836 31.5898 10.1836C32.9146 10.884 33.1848 12.0091 33.9392 12.2622Z" fill="white"/>
<path d="M3.51632 12.3256C3.64506 12.3256 3.77529 12.3059 3.89988 12.2622C4.657 12.0091 4.92874 10.884 6.25349 10.1836C6.25349 10.1836 5.88259 9.9248 5.39295 9.9248C5.07451 9.9248 4.7051 10.0317 4.35409 10.3904C3.25873 11.4972 2.23828 11.5591 2.23828 11.5591C2.42085 11.9683 2.96007 12.3256 3.51632 12.3256Z" fill="white"/>
<path d="M34.2986 16.8343C34.3213 16.8357 34.3411 16.8357 34.3651 16.8357C35.7535 16.8357 36.2249 15.3576 36.2249 15.3576H36.1979C35.9432 15.3576 33.8783 15.2985 32.4191 13.4548C31.4582 12.2425 30.6712 11.1764 29.1158 10.7573L28.963 10.7306L28.929 10.5759C28.8865 10.3395 29.0493 10.1187 29.4187 9.87971C31.5643 8.48317 30.1079 6.70263 30.1079 6.70263C30.1079 6.70263 29.4951 8.12738 28.1238 8.12738C28.0912 8.12738 28.0558 8.12598 28.0218 8.12598C27.8662 8.11745 27.7162 8.11178 27.5646 8.07954L27.3113 8.03036C27.3113 8.03036 27.702 6.97409 26.7594 6.00368C26.0489 5.27097 25.1842 5.14722 24.6846 5.14722C24.4326 5.14722 24.2727 5.17949 24.2727 5.17949C24.7468 5.79557 25.0893 6.81658 24.5417 7.4466C24.069 7.98804 22.9141 8.01483 22.9141 8.82202C22.9141 9.16381 23.2354 9.56325 23.8128 9.92183C25.5493 11.009 27.2731 12.4506 27.9892 14.383C28.8851 16.7936 27.8761 18.3926 26.4354 19.3096C26.4354 19.3096 26.8868 19.723 27.5421 19.775C27.6751 19.7878 27.8053 19.7934 27.9271 19.7934C29.3098 19.7934 30.0245 19.1492 30.0245 19.1492C30.0245 19.1492 29.907 20.0395 29.1866 20.8664C28.5229 21.6301 27.651 22.0787 26.322 22.0984C26.322 22.0984 26.2796 22.7116 26.8684 23.2418C27.2448 23.5765 28.1152 23.6862 28.1152 23.6862C28.1152 23.6862 26.4862 24.0139 26.3065 26.4048C26.2089 27.7001 25.8762 28.1501 25.8762 28.1501H25.906C29.6862 28.1501 29.5885 24.9281 29.5885 24.9281C29.5885 24.9281 29.8518 25.8815 30.9062 26.1306C31.0335 26.1643 31.1694 26.177 31.2996 26.177C31.6393 26.177 31.9336 26.0982 31.9336 26.0982C31.9336 26.0982 31.3817 24.9407 31.9294 23.322C32.3837 21.9788 32.3101 20.9832 32.3101 20.9832C32.3101 20.9832 32.8196 21.7483 34.0821 21.7553H34.0948C35.1464 21.7553 35.6049 20.9635 35.6049 20.9635C33.0843 19.9242 33.3334 16.5685 33.3334 16.5685C33.3334 16.5685 33.6604 16.8103 34.2986 16.8343ZM33.54 20.339C32.5153 19.8369 31.8671 18.5037 31.7101 18.0227C31.5402 20.6667 30.241 22.502 28.7224 24.2684C27.9341 25.184 27.6596 26.0743 27.6596 26.0743C27.6596 26.0743 27.8109 25.0659 28.4931 24.2446C29.9098 22.5527 31.2558 20.4473 31.3562 18.0128C31.4256 16.314 30.9854 14.9357 30.299 13.8007C30.6825 14.9835 30.6288 16.4321 29.3253 17.7837C29.3253 17.7837 31.9195 14.6937 28.2921 11.5266C26.8401 10.3213 25.2521 9.57731 24.4341 9.04993C27.3892 10.0077 28.8314 8.95283 28.8314 8.95283C27.8873 9.76576 26.666 9.7517 25.9088 9.63495C26.114 9.73484 26.3278 9.83886 26.5584 9.96128C29.0493 11.3058 31.2883 13.518 31.6704 16.5826V16.5586C32.2507 19.5669 33.54 20.339 33.54 20.339Z" fill="white"/>
<path d="M9.72674 23.6862C9.72674 23.6862 10.5972 23.5779 10.9737 23.2418C11.5609 22.7116 11.52 22.0984 11.52 22.0984C10.1896 22.0801 9.31919 21.6301 8.65121 20.8679C7.93643 20.0409 7.81757 19.1506 7.81757 19.1506C7.81757 19.1506 8.53222 19.7948 9.91359 19.7948C10.0382 19.7948 10.167 19.7891 10.2999 19.7764C10.9553 19.7245 11.4081 19.311 11.4081 19.311C9.96731 18.394 8.9569 16.7936 9.85133 14.383C10.5689 12.452 12.2912 11.009 14.0279 9.92183C14.6053 9.56325 14.9265 9.16528 14.9265 8.82202C14.9265 8.01483 13.7731 7.98804 13.3003 7.4466C12.7527 6.81658 13.0966 5.7941 13.5693 5.17949C13.5693 5.17949 13.4122 5.14722 13.1588 5.14722C12.6607 5.14722 11.7959 5.27097 11.0854 6.00368C10.14 6.97409 10.5321 8.03036 10.5321 8.03036L10.2787 8.07954C10.1274 8.11178 9.97585 8.11745 9.8216 8.12598C9.78627 8.12598 9.75507 8.12738 9.72114 8.12738C8.34691 8.12738 7.73692 6.70401 7.73692 6.70401C7.73692 6.70401 6.28057 8.48457 8.4247 9.88104C8.79412 10.1201 8.95551 10.3411 8.91304 10.5772L8.87898 10.732L8.72333 10.7587C7.17079 11.1778 6.38249 12.2439 5.42152 13.4561C3.96516 15.2971 1.90308 15.3576 1.64559 15.3576H1.61719C1.61719 15.3576 2.08853 16.8357 3.4769 16.8357C3.49956 16.8357 3.51935 16.8357 3.5434 16.8343C4.18168 16.8117 4.51002 16.5685 4.51002 16.5685C4.51002 16.5685 4.75632 19.9228 2.23854 20.9635C2.23854 20.9635 2.69711 21.7553 3.74864 21.7553H3.7614C5.02519 21.7483 5.53334 20.9832 5.53334 20.9832C5.53334 20.9832 5.45971 21.9788 5.91264 23.322C6.46028 24.9407 5.91116 26.0982 5.91116 26.0982C5.91116 26.0982 6.20556 26.177 6.5438 26.177C6.67541 26.177 6.8099 26.1643 6.93587 26.1306C7.98875 25.8815 8.25345 24.9281 8.25345 24.9281C8.25345 24.9281 8.1572 28.1501 11.9375 28.1501H11.9643C11.9643 28.1501 11.6332 27.7001 11.5369 26.4048C11.3558 24.0139 9.72674 23.6862 9.72674 23.6862ZM9.11969 24.2684C7.60107 22.502 6.30323 20.6667 6.13194 18.0227C5.97489 18.5023 5.32949 19.8369 4.30488 20.339C4.30488 20.339 5.59271 19.5669 6.17161 16.5586V16.5826C6.55517 13.5195 8.79272 11.3058 11.285 9.96128C11.5129 9.83753 11.7294 9.73344 11.9332 9.63495C11.176 9.7517 9.95465 9.76576 9.01063 8.95283C9.01063 8.95283 10.4528 10.0077 13.4065 9.04993C12.5885 9.57731 11.0019 10.3213 9.54983 11.5266C5.92105 14.6937 8.51669 17.7837 8.51669 17.7837C7.21185 16.4307 7.15952 14.9835 7.54301 13.8007C6.85521 14.9371 6.41644 16.314 6.48719 18.0128C6.58625 20.4473 7.93216 22.5527 9.34605 24.2446C10.0297 25.0645 10.184 26.0743 10.184 26.0743C10.184 26.0743 9.90645 25.184 9.11969 24.2684Z" fill="white"/>
<path d="M16.1279 11.9064C16.19 11.9726 16.2509 12.0442 16.309 12.116C16.3232 12.1329 16.3358 12.1484 16.35 12.1681C16.4038 12.2397 16.459 12.3157 16.5114 12.393C16.5227 12.4085 16.5341 12.4268 16.5467 12.4451C16.6105 12.5407 16.6699 12.6391 16.7293 12.7404C17.2742 13.6757 18.1475 14.234 18.9216 14.2354C19.6972 14.234 20.5676 13.6757 21.1153 12.7404C21.1762 12.6364 21.237 12.5351 21.3006 12.4409C21.3106 12.4268 21.3206 12.4142 21.329 12.4001C21.3827 12.32 21.4394 12.2411 21.4989 12.1652C21.5115 12.1484 21.5229 12.1343 21.5342 12.1203C21.5951 12.0457 21.6573 11.9726 21.721 11.905C21.7323 11.8937 21.7408 11.884 21.7507 11.8756C22.0281 11.5928 22.3593 11.3776 22.7923 11.2581L22.5999 11.147H22.5886L21.8214 10.704L21.0332 10.2554L18.9272 11.3945L18.9216 11.3903L18.9173 11.3945L16.81 10.2554L16.0231 10.7026L15.2546 11.1456H15.2461L15.0508 11.2567C15.4853 11.3762 15.815 11.5886 16.0939 11.8713C16.1065 11.8826 16.1151 11.8952 16.1279 11.9064ZM18.0695 11.8151H18.9612H19.8514V12.4226C19.642 12.1681 19.2344 12.2201 19.2344 12.2201V13.0962C19.2344 13.0962 19.2499 13.5266 19.4013 13.7137H18.9612H18.5196C18.6739 13.5281 18.6881 13.0962 18.6881 13.0962V12.2201C18.6881 12.2201 18.2819 12.1681 18.0695 12.4226V11.8151Z" fill="white"/>
<path d="M18.7395 10.6363V7.07961L16.4609 6.31177L17.0624 9.75882L18.7395 10.6363ZM18.2499 7.95298V8.52394L18.1395 8.47336C18.1338 8.46909 17.9725 8.43258 17.6894 8.21034C17.2224 7.85036 17.2139 7.51843 17.2139 7.51843L18.2499 7.95298Z" fill="white"/>
<path d="M20.784 9.75882L21.3827 6.31177L19.1055 7.07961V10.6363L20.784 9.75882ZM19.5952 7.95298L20.6311 7.51976C20.6311 7.51976 20.6227 7.85176 20.1542 8.21181C19.8726 8.43398 19.7098 8.47049 19.7041 8.47476L19.5937 8.52534V7.95298H19.5952Z" fill="white"/>
<path d="M15.5177 18.8822C15.74 18.9625 16.0089 18.9794 16.1461 18.9794C16.1518 18.9625 16.1588 18.9413 16.166 18.916C16.1786 18.8752 16.19 18.8359 16.1986 18.7909C16.2368 18.5939 16.2509 18.3703 16.2537 18.2268C16.1602 18.1693 16.0286 18.0666 15.9551 17.9133C15.8702 17.7361 15.7499 17.6545 15.5729 17.6545C15.3437 17.6545 15.0974 17.791 14.9926 17.8556C14.9093 18.3465 15.2729 18.7923 15.5177 18.8822Z" fill="white"/>
<path d="M20.5569 16.9946C20.1337 17.4518 19.3058 18.2478 19.2647 18.2886L19.2152 18.3392L16.5984 18.2984C16.5969 18.5558 16.5544 18.7752 16.5135 18.9355C16.5064 18.9622 16.4993 18.9903 16.4922 19.0185L19.6058 19.574C19.9299 19.349 20.8215 18.7021 21.1669 18.4489C20.9149 18.0832 20.8909 17.65 20.9474 17.3449C20.7833 17.2394 20.6573 17.1212 20.5569 16.9946Z" fill="white"/>
<path d="M20.91 13.8673C20.307 14.4622 19.7282 14.6816 19.2116 14.7322C19.1182 14.7421 19.0234 14.7477 18.9271 14.7477H18.92H18.9143C18.8181 14.7477 18.7219 14.7421 18.6284 14.7322C18.5379 14.7237 18.4431 14.7097 18.3483 14.6886C18.3143 14.8222 18.2718 15.1021 18.3935 15.3665C18.5025 15.607 18.7247 15.7856 19.0488 15.9038L19.1578 15.9459L19.1592 16.0627C19.1592 16.0978 19.1847 16.8545 20.0155 17.064C20.1513 16.9248 20.2744 16.7996 20.3651 16.6956C20.1952 16.299 20.2843 15.8939 20.5306 15.6955C20.5193 15.7377 20.4117 16.7307 21.2129 17.0992L21.3444 17.1611L21.3048 17.3003C21.292 17.3424 21.0245 18.303 21.994 18.6602L22.1653 18.7249L22.0888 18.8909C22.0719 18.9275 21.6912 19.7995 22.5871 20.2945H24.5302V18.7615C23.8396 18.6771 23.5466 18.1259 23.4716 17.7349C23.1503 17.68 22.9012 17.5422 22.7313 17.3172C22.3237 16.7841 22.6747 16.2961 22.679 16.2694C22.6776 16.2736 22.679 16.7939 23.0017 17.1146C23.1616 17.2693 23.3513 17.3889 23.6386 17.4156L23.7801 17.4283L23.7929 17.5718C23.7956 17.6026 23.8735 18.3058 24.5316 18.4169L24.5302 15.2863C24.5302 14.8011 24.6732 14.3131 24.8444 13.863H20.91V13.8673Z" fill="white"/>
<path d="M15.6812 15.3013L15.6289 17.2954L15.8567 17.3292L16.4143 15.4165L16.1313 14.8286L15.6812 15.3013Z" fill="white"/>
<path d="M21.8308 24.4473C21.8478 24.4473 21.8676 24.4501 21.886 24.4544C22.2328 24.5528 22.3205 25.796 22.929 25.9072C22.9885 25.9198 23.0437 25.9227 23.0918 25.9227C23.2673 25.9227 23.372 25.8481 23.4852 25.7159C23.4852 25.7159 23.1796 25.2377 22.9503 24.9156C22.646 24.4938 22.4097 23.9832 21.8436 23.9832C21.8308 23.9832 21.8138 23.9832 21.7997 23.9846C21.6128 23.9945 21.4982 24.0845 21.4982 24.0845C21.2689 23.9411 21.0553 23.8918 20.8613 23.8918C20.5061 23.8918 20.2302 24.0535 20.0928 24.0535H20.0872L18.8218 23.9298C18.6237 23.9116 18.4681 23.7133 18.4115 23.6358C18.3974 23.6148 18.3902 23.6021 18.3902 23.6021C18.3902 23.5683 18.3902 23.5332 18.3874 23.5023C18.345 22.4742 17.5439 22.034 17.2594 22.027C17.2594 22.027 17.2934 21.8314 17.2156 21.7569L16.9367 22.093L16.0211 21.636L16.6735 22.3941L16.1201 23.0114C16.0508 23.0817 16.0593 23.1773 16.0876 23.2168L16.3268 23.4264L16.6297 23.2435C16.6452 23.2322 16.6721 23.2295 16.706 23.2295C16.7896 23.2295 16.9155 23.2505 17.0287 23.2505C17.1519 23.2505 17.2594 23.2238 17.2722 23.1084C17.234 23.4896 16.8788 24.152 17.1123 24.6724L17.285 25.0648L16.1668 24.9044L15.6432 25.7834C15.4819 26.0759 15.4564 26.3924 15.6121 26.564L15.8073 26.8072C15.8073 26.8072 16.0819 26.5175 16.1442 26.3277L16.055 26.2307C15.98 26.1491 15.9843 26.0759 16.0296 25.9873L16.358 25.4459L17.6783 25.7553L17.7477 25.6372C17.8368 25.4894 17.9657 25.4445 18.1072 25.4445C18.1652 25.4445 18.2247 25.4515 18.2869 25.4613C18.5318 25.5092 18.9352 25.5739 19.3385 25.5739C19.7815 25.5739 20.2202 25.4951 20.4537 25.2349C20.9321 25.9395 21.9015 26.0521 21.8252 26.4093L21.5704 27.616C21.7388 27.609 21.9015 27.5977 22.0558 27.5766L22.2978 26.3206C22.3248 26.1842 22.3502 26 22.3502 26C22.2568 25.9057 22.0304 25.7061 21.903 25.4642C21.7317 25.1379 21.8252 24.9677 21.6652 24.543C21.6708 24.5458 21.719 24.4473 21.8308 24.4473ZM16.8915 22.6837C16.8264 22.6824 16.7797 22.6275 16.7824 22.5627C16.7882 22.5009 16.8406 22.4516 16.9041 22.4573C16.9693 22.4601 17.016 22.5164 17.0132 22.5782C17.0075 22.6402 16.9537 22.688 16.8915 22.6837Z" fill="white"/>
<path d="M15.0885 25.5893C15.0885 25.5893 15.5257 25.4107 15.5653 25.2827L15.5073 25.1379C15.4663 25.0436 15.4719 24.9409 15.5512 24.8847L16.0239 24.5598L16.8136 24.7103C16.8136 24.7103 16.6707 24.533 16.6849 24.2955L15.932 24.1365L15.2214 24.5668C14.9171 24.7933 14.8945 25.1632 14.995 25.3826L15.0885 25.5893Z" fill="white"/>
<path d="M20.668 27.6342C20.8095 27.6286 20.9651 27.6257 21.1364 27.6257C21.1364 27.6257 21.5427 26.4458 21.5652 26.4078C21.3374 26.308 20.8647 26.059 20.6821 25.9451C20.8024 26.1238 21.0954 26.3291 21.0374 26.4866L20.668 27.6342Z" fill="white"/>
<path d="M24.536 20.636H13.3086V24.8326C13.3086 26.5484 14.5584 27.6229 16.4024 27.6229C17.9437 27.6229 18.3498 27.682 18.923 28.2474C19.3179 27.8563 19.6449 27.7101 20.3157 27.6552L20.3312 27.5906L20.685 26.5035C20.6652 26.4795 20.0864 25.8255 20.0864 25.8255C19.8571 25.9014 19.6647 25.9141 19.3406 25.9141C19.008 25.9141 18.633 25.8762 18.2267 25.8003C18.1857 25.7904 18.1475 25.7876 18.1092 25.7876C18.0597 25.7876 18.0555 25.7918 18.0428 25.8157L17.972 25.931L17.8432 26.142L17.6012 26.0872L16.5241 25.8354L16.3769 26.0772L16.3996 26.1026L16.5312 26.246L16.4732 26.4331C16.3939 26.6778 16.1363 26.9633 16.0585 27.042L15.7896 27.3289L15.5448 27.021L15.3608 26.7917C15.1668 26.5766 15.1216 26.246 15.2306 25.9C15.2277 25.9029 15.2234 25.9043 15.2193 25.9043L14.915 26.0295L14.7776 25.7341L14.6814 25.5245C14.5159 25.1561 14.5766 24.6175 15.0226 24.2926L15.8902 23.806L16.7153 23.9677C16.735 23.889 16.7647 23.6077 16.7888 23.5359C16.7732 23.5345 16.7577 23.5304 16.742 23.5304L16.2666 23.7061L15.808 23.3911C15.808 23.3911 15.6282 23.2195 15.791 23.0479L16.2354 22.3799L15.1102 20.9763L16.8397 21.6823L16.9544 21.5402L17.1879 21.2633L17.4526 21.5135C17.5276 21.5853 17.57 21.6739 17.5912 21.7625C18.0682 21.9467 18.9216 22.4909 18.9966 23.3756L18.7291 23.4825V23.4896C18.79 23.5612 18.8409 23.5907 18.8565 23.5936L20.0906 23.7145C20.1218 23.709 20.1614 23.6949 20.2053 23.6822C20.3581 23.6301 20.5889 23.5556 20.8619 23.5556C21.0842 23.5556 21.2992 23.6063 21.5059 23.7019C21.5823 23.6738 21.6758 23.6527 21.7834 23.6456L21.8427 23.6442C22.5037 23.6442 22.832 24.1351 23.0953 24.526C23.1391 24.5935 23.183 24.6583 23.2283 24.7215C23.459 25.045 23.7604 25.519 23.7732 25.5386L23.909 25.7496L23.742 25.9422C23.6133 26.09 23.4208 26.2629 23.0896 26.2629C23.0217 26.2629 22.9467 26.2559 22.866 26.2404C22.7953 26.2278 22.7316 26.2067 22.6693 26.1813C22.6594 26.246 22.6467 26.3234 22.6339 26.3895L22.4174 27.5118C23.7123 27.1954 24.5346 26.2236 24.5346 24.834L24.536 20.636Z" fill="#FFDD2D"/>
<path d="M13.3074 20.2985H22.0383C21.6023 19.8513 21.6081 19.2845 21.7198 18.916C21.5925 18.8555 21.4877 18.7823 21.3943 18.7036C21.0533 18.9539 20.0116 19.7078 19.7399 19.8962L19.6819 19.9356L16.2554 19.3196H16.1861C16.1041 19.3196 15.9837 19.3168 15.8521 19.3013C15.8153 19.4547 15.6823 19.5601 15.5294 19.5601C15.5124 19.5601 15.4926 19.5587 15.4742 19.5545C15.385 19.539 15.3073 19.494 15.2549 19.4195C15.2011 19.3464 15.1799 19.2591 15.1954 19.1692L15.2082 19.096C14.8543 18.8485 14.5288 18.2957 14.6732 17.7135L14.6873 17.6517L14.7369 17.6165C14.7439 17.6109 14.8033 17.5715 14.8911 17.5209L14.642 17.4829C14.5486 17.466 14.4864 17.3802 14.5006 17.2888C14.5161 17.196 14.6038 17.1299 14.6958 17.1481L15.2888 17.241L15.3426 15.1651L16.2258 14.2369L16.7763 15.3888L16.1946 17.3858L16.7183 17.4674C16.8102 17.4815 16.874 17.5673 16.8598 17.6615C16.8456 17.7444 16.7749 17.8021 16.6914 17.8021C16.6828 17.8021 16.673 17.8021 16.6644 17.8007L16.2384 17.7318C16.2442 17.7444 16.2526 17.7515 16.2583 17.7656C16.3036 17.8584 16.4041 17.9259 16.4635 17.954L19.0762 17.9948C19.1865 17.8879 19.4611 17.6207 19.7427 17.338C19.1002 17.0962 18.8666 16.5448 18.827 16.1792C18.4676 16.0272 18.2199 15.7994 18.0826 15.5026C17.9156 15.1357 17.975 14.7685 18.0189 14.59C17.6707 14.4633 17.3042 14.2328 16.9306 13.8643H12.9961C13.1645 14.3143 13.3074 14.8023 13.3074 15.2875V20.2985Z" fill="#FFDD2D"/>
<path d="M16.9032 22.4572C16.8395 22.4516 16.7858 22.5007 16.7815 22.5627C16.7772 22.6273 16.8254 22.6821 16.8905 22.6836C16.9527 22.6892 17.008 22.6413 17.0135 22.5781C17.0135 22.5162 16.9684 22.4586 16.9032 22.4572Z" fill="black"/>
<path d="M24.5183 30.067L23.8715 29.8209L24.0498 29.1572L24.2465 28.4329C24.2465 28.4329 23.1001 29.0502 21.4853 29.5143C21.0267 29.6451 20.68 29.7042 20.68 29.7042V30.1965C20.68 30.1965 19.8167 30.3455 18.9435 30.3455H18.9335H18.9208H18.9038H18.8939C18.0207 30.3455 17.1573 30.1965 17.1573 30.1965V29.7042C17.1573 29.7042 16.8091 29.6451 16.352 29.5143C14.7372 29.0502 13.5922 28.4329 13.5922 28.4329L13.7861 29.1572L13.9687 29.8209L13.3205 30.067L12.6016 30.3343C13.4267 30.7295 14.5687 31.3061 15.6147 31.5902L15.3684 32.2597C15.3684 32.2597 16.6945 32.8602 18.9038 32.8657V32.8672H18.9109H18.9208H18.9293H18.9349V32.8657C21.1471 32.8602 22.4717 32.2597 22.4717 32.2597L22.224 31.5902C23.2699 31.3061 24.4149 30.7295 25.2358 30.3343L24.5183 30.067ZM13.3686 30.3793L14.4329 30.0277L14.1187 29.008C14.5871 29.2724 15.6388 29.6691 16.2473 29.8533L15.7336 31.2555C14.7938 30.9981 14.0111 30.6985 13.3686 30.3793ZM18.9208 32.5142C17.6852 32.5142 16.2742 32.2315 15.8596 32.0852L16.4907 30.3877C17.0144 30.5396 18.1042 30.7014 18.8953 30.6957H18.8967H18.9208H18.942H18.9449C19.736 30.7014 20.8229 30.5396 21.3494 30.3877L21.9792 32.0852C21.5645 32.2329 20.1549 32.5142 18.9208 32.5142ZM22.1051 31.2555L21.5929 29.8533C22.2028 29.6691 23.2515 29.2724 23.7214 29.008L23.4087 30.0277L24.4715 30.3793C23.8275 30.6985 23.0491 30.9981 22.1051 31.2555Z" fill="black"/>
<path d="M18.9218 3.5708C20.2381 3.5708 21.2909 4.00393 21.8727 4.46666C21.8727 4.46666 22.0453 3.43298 22.6355 2.5202L21.5754 2.63979L21.0207 1.4682L19.955 2.0139L18.9218 0.998535L17.8915 2.0139L16.8244 1.4682L16.271 2.63979L15.2109 2.5202C15.8011 3.43298 15.9738 4.46666 15.9738 4.46666C16.5568 4.00393 17.607 3.5708 18.9218 3.5708ZM16.2228 3.05044L16.5172 3.08133L16.6446 2.81561L17.0154 2.02796L17.7032 2.381L17.9693 2.51603L18.1816 2.30784L18.9232 1.57651L19.6663 2.30784L19.8786 2.51603L20.1446 2.381L20.8283 2.02796L21.2033 2.81561L21.3278 3.08133L21.6222 3.05044L21.9024 3.01668C21.7736 3.30497 21.6788 3.57783 21.6108 3.80424C20.8692 3.39358 19.904 3.16014 18.9204 3.16014C17.9411 3.16014 16.9772 3.39358 16.2327 3.80424C16.1635 3.57783 16.07 3.30359 15.9412 3.01668L16.2228 3.05044Z" fill="black"/>
<path d="M34.3609 17.2871C36.0636 17.2871 36.6325 15.5657 36.6565 15.4925L36.8462 14.8864L36.2079 14.906H36.2051C35.9801 14.906 34.102 14.8569 32.7702 13.1748L32.6442 13.0187C31.7738 11.9189 30.9487 10.8739 29.474 10.3971C29.5164 10.3592 29.5773 10.3114 29.6608 10.2579C30.4435 9.746 30.8992 9.12439 31.0138 8.40296C31.1808 7.31722 30.4845 6.45222 30.4534 6.41707L29.9793 5.83484L29.6835 6.52538C29.6637 6.56894 29.1654 7.6744 28.1181 7.6744H28.0403C27.9682 7.67013 27.9002 7.66733 27.8323 7.66174C27.8691 7.16808 27.7785 6.4044 27.0822 5.68862C26.2457 4.82642 25.2182 4.69702 24.6805 4.69702C24.3931 4.69702 24.2022 4.73226 24.1822 4.73503L23.4662 4.87572L23.9077 5.45369C24.2545 5.89949 24.5686 6.72229 24.1964 7.15262C24.0776 7.28909 23.8327 7.40018 23.5978 7.51127C23.1152 7.73211 22.457 8.03864 22.457 8.82065C22.457 9.32691 22.8519 9.85568 23.568 10.3058C25.6882 11.6306 26.9958 13.013 27.5606 14.5389C28.4338 16.8863 27.2944 18.2252 26.1877 18.9298L25.691 19.2476L26.1255 19.6442C26.1834 19.6948 26.7157 20.1604 27.5011 20.2279C27.6497 20.2377 27.7926 20.2462 27.9257 20.2462C28.4295 20.2462 28.8584 20.1674 29.2065 20.0619C29.1102 20.2293 28.9928 20.3994 28.8442 20.571C28.2116 21.2996 27.4332 21.6314 26.3137 21.6483L25.8975 21.6553L25.865 22.0702C25.8608 22.1533 25.8297 22.9225 26.5627 23.5765C26.6746 23.6778 26.8104 23.7607 26.952 23.8296C26.4552 24.274 25.9499 25.0475 25.8524 26.3738C25.7702 27.4806 25.5041 27.8899 25.5013 27.8941L25.0414 28.5917L25.8722 28.6029C27.245 28.6029 28.2965 28.226 29.0253 27.4806C29.4556 27.039 29.7019 26.5412 29.8477 26.0996C30.0868 26.3021 30.3954 26.4793 30.7973 26.5735C30.9501 26.6086 31.1172 26.6283 31.2969 26.6283C31.6847 26.6283 32.0088 26.5468 32.0456 26.5383L32.5763 26.3978L32.3414 25.9055C32.3244 25.8661 31.8814 24.8787 32.3583 23.4696C32.5635 22.8606 32.6683 22.3149 32.7192 21.8902C33.0532 22.0632 33.5005 22.2066 34.0793 22.2081C35.3927 22.2081 35.9715 21.2335 35.9985 21.1926L36.2574 20.7455L35.7777 20.5485C34.2124 19.9029 33.8657 18.1689 33.7963 17.2294C33.9378 17.2561 34.0992 17.2815 34.2817 17.2871H34.3609ZM35.6022 20.9634C35.6022 20.9634 35.1436 21.7552 34.092 21.7552H34.0793C32.8169 21.7481 32.3074 20.983 32.3074 20.983C32.3074 20.983 32.381 21.9788 31.9253 23.322C31.3776 24.9406 31.9296 26.0982 31.9296 26.0982C31.9296 26.0982 31.6351 26.1769 31.2955 26.1769C31.1653 26.1769 31.0294 26.1642 30.9021 26.1304C29.8477 25.8815 29.5844 24.928 29.5844 24.928C29.5844 24.928 29.682 28.15 25.9018 28.15H25.8722C25.8722 28.15 26.2047 27.7 26.3038 26.4048C26.4835 24.0139 28.1126 23.6862 28.1126 23.6862C28.1126 23.6862 27.2435 23.5779 26.867 23.2417C26.2782 22.7115 26.3193 22.0984 26.3193 22.0984C27.6497 22.0801 28.5202 21.63 29.1839 20.8663C29.9029 20.0394 30.0217 19.1491 30.0217 19.1491C30.0217 19.1491 29.3069 19.7933 27.9243 19.7933C27.8026 19.7933 27.6724 19.7876 27.5393 19.775C26.8854 19.723 26.4326 19.3095 26.4326 19.3095C27.8718 18.3925 28.8825 16.792 27.9866 14.3815C27.2691 12.4505 25.5452 11.0075 23.8101 9.92046C23.2326 9.56174 22.9113 9.16377 22.9113 8.82065C22.9113 8.01339 24.0662 7.988 24.5404 7.44523C25.0866 6.81506 24.7441 5.79267 24.27 5.17807C24.27 5.17807 24.4299 5.1457 24.6819 5.1457C25.1814 5.1457 26.0462 5.27084 26.7566 6.00216C27.7007 6.97257 27.3086 8.02878 27.3086 8.02878L27.5619 8.07803C27.7135 8.11042 27.8634 8.11601 28.0191 8.12308C28.0531 8.12308 28.087 8.12448 28.1209 8.12448C29.4924 8.12448 30.1052 6.69972 30.1052 6.69972C30.1052 6.69972 31.563 8.48166 29.4174 9.87681C29.048 10.1158 28.8852 10.3368 28.9277 10.573L28.9617 10.7277L29.1145 10.7544C30.6699 11.1735 31.4568 12.2396 32.4178 13.4518C33.8769 15.2956 35.9419 15.3547 36.1966 15.3547H36.2235C36.2235 15.3547 35.7522 16.8328 34.3638 16.8328C34.3411 16.8328 34.3213 16.8328 34.2973 16.8314C33.659 16.809 33.3321 16.5656 33.3321 16.5656C33.3321 16.5656 33.0816 19.9227 35.6022 20.9634Z" fill="black"/>
<path d="M31.3727 10.5831C32.0081 10.9191 32.3775 11.3692 32.7016 11.7687C33.02 12.1583 33.3229 12.5336 33.7955 12.6898C33.964 12.7475 34.1423 12.7742 34.3234 12.7742C35.0339 12.7742 35.7473 12.3424 36.0175 11.7447L36.2893 11.1456L35.6312 11.1062C35.6 11.1048 34.7537 11.0288 33.8112 10.0711C33.4234 9.67878 32.9549 9.47192 32.4496 9.47192C31.8326 9.47192 31.3754 9.77853 31.3245 9.80952L30.7188 10.2329L31.3727 10.5831ZM32.4511 9.92487C32.768 9.92487 33.1375 10.0317 33.4871 10.3903C34.5838 11.4972 35.6043 11.5591 35.6043 11.5591C35.4189 11.967 34.8811 12.3255 34.3248 12.3255C34.1961 12.3255 34.0673 12.3059 33.9385 12.2623C33.1842 12.0091 32.9138 10.884 31.5877 10.1836C31.5877 10.1836 31.9586 9.92487 32.4511 9.92487Z" fill="black"/>
<path d="M31.6699 16.5588V16.5813C31.2878 13.5182 29.0488 11.3059 26.5579 9.95997C26.3273 9.83762 26.115 9.7336 25.9084 9.6337C26.6669 9.75039 27.8883 9.76445 28.8309 8.95166C28.8309 8.95166 27.3887 10.0064 24.4336 9.04869C25.2517 9.57606 26.841 10.3201 28.2917 11.5253C31.9191 14.6925 29.3234 17.7824 29.3234 17.7824C30.6269 16.4308 30.6806 14.9823 30.2972 13.7995C30.9835 14.9344 31.4223 16.3126 31.3543 18.0116C31.2539 20.446 29.9079 22.5514 28.4912 24.2433C27.8105 25.0646 27.6577 26.0731 27.6577 26.0731C27.6577 26.0731 27.9322 25.1827 28.7205 24.2672C30.2391 22.5008 31.5369 20.6654 31.7067 18.0215C31.8638 18.5011 32.5106 19.8357 33.5367 20.3377C33.5395 20.3392 32.2502 19.5671 31.6699 16.5588Z" fill="black"/>
<path d="M12.3373 27.8928C12.3359 27.8886 12.0727 27.4794 11.9878 26.3725C11.8888 25.0463 11.3848 24.2728 10.8867 23.8284C11.0311 23.7609 11.1641 23.6779 11.2759 23.5753C12.0076 22.9213 11.9764 22.1519 11.9722 22.0689L11.9439 21.6541L11.525 21.647C10.4084 21.6288 9.62846 21.2969 8.99587 20.5698C8.84869 20.3982 8.72984 20.2281 8.63358 20.0607C8.98167 20.1661 9.40769 20.2448 9.91296 20.2448C10.0489 20.2448 10.189 20.2365 10.3376 20.2267C11.123 20.1592 11.6552 19.695 11.7146 19.643L12.1491 19.2463L11.6523 18.9285C10.5414 18.2225 9.40629 16.8837 10.2781 14.5377C10.8428 13.0118 12.1491 11.6294 14.272 10.3045C14.9882 9.85446 15.3802 9.32568 15.3802 8.81943C15.3802 8.03742 14.7235 7.72942 14.2409 7.51005C14.0059 7.39896 13.7612 7.28787 13.6423 7.15139C13.2686 6.72245 13.5842 5.89827 13.9295 5.45246L14.374 4.8744L13.655 4.73381C13.6338 4.73095 13.4455 4.6958 13.1568 4.6958C12.619 4.6958 11.5944 4.82519 10.7565 5.6873C10.0587 6.40457 9.96682 7.16825 10.0021 7.66052C9.93423 7.66611 9.8663 7.66891 9.79551 7.67318H9.71912C8.66898 7.67318 8.17224 6.56772 8.15244 6.52416L7.85654 5.83362L7.3782 6.41585C7.35134 6.45099 6.65222 7.31732 6.82203 8.40174C6.93524 9.12317 7.39093 9.74478 8.17357 10.2567C8.25849 10.3101 8.31795 10.358 8.36041 10.3959C6.88715 10.8727 6.06343 11.9191 5.193 13.0189L5.06702 13.175C3.73673 14.857 1.85436 14.9062 1.62933 14.9062L0.988281 14.8865L1.18353 15.4927C1.20619 15.5659 1.77371 17.2873 3.47766 17.2873L3.55979 17.2844C3.7395 17.2788 3.9009 17.2549 4.04528 17.2268C3.97443 18.1649 3.62768 19.8989 2.06099 20.5459L1.58263 20.7428L1.84169 21.1901C1.86713 21.2308 2.44741 22.2054 3.76355 22.2054C4.33819 22.204 4.78539 22.0606 5.12085 21.8876C5.17181 22.3123 5.27651 22.858 5.48175 23.467C5.95873 24.8762 5.51431 25.8634 5.49729 25.9028L5.26236 26.395L5.79455 26.5357C5.82989 26.5441 6.15684 26.6257 6.54317 26.6257C6.72436 26.6257 6.8914 26.606 7.04144 26.5709C7.44479 26.4766 7.75609 26.2994 7.99239 26.0969C8.13677 26.5385 8.38448 27.0363 8.81336 27.478C9.54354 28.2234 10.5937 28.6003 11.9666 28.6003L12.7987 28.589L12.3373 27.8928ZM11.9354 28.1502C8.15517 28.1502 8.2515 24.9282 8.2515 24.9282C8.2515 24.9282 7.98826 25.8817 6.93386 26.1306C6.80788 26.1644 6.6734 26.177 6.54179 26.177C6.20216 26.177 5.90915 26.0983 5.90915 26.0983C5.90915 26.0983 6.45827 24.9408 5.91054 23.3221C5.45771 21.979 5.53133 20.9832 5.53133 20.9832C5.53133 20.9832 5.02318 21.7483 3.75939 21.7553H3.74663C2.6951 21.7553 2.23654 20.9635 2.23654 20.9635C4.7557 19.9242 4.50801 16.5685 4.50801 16.5685C4.50801 16.5685 4.18115 16.8105 3.54139 16.8343C3.51873 16.8359 3.49755 16.8359 3.47489 16.8359C2.08503 16.8359 1.61518 15.3577 1.61518 15.3577H1.64349C1.89968 15.3577 3.96176 15.2987 5.42089 13.4548C6.38187 12.2426 7.17016 11.1779 8.7227 10.7574L8.87835 10.7306L8.91242 10.576C8.95488 10.3397 8.7935 10.1189 8.42414 9.87979C6.27856 8.48317 7.73629 6.70276 7.73629 6.70276C7.73629 6.70276 8.34628 8.12598 9.72052 8.12598C9.75444 8.12598 9.78564 8.12459 9.82097 8.12459C9.97522 8.11619 10.1281 8.11052 10.2781 8.07821L10.5315 8.02896C10.5315 8.02896 10.1394 6.97274 11.0848 6.00242C11.7953 5.26961 12.66 5.14586 13.1582 5.14586C13.4115 5.14586 13.5687 5.17823 13.5687 5.17823C13.096 5.79422 12.7535 6.81523 13.2997 7.44534C13.7724 7.98678 14.9259 8.0135 14.9259 8.82076C14.9259 9.16255 14.6047 9.56192 14.0273 9.92057C12.2906 11.0077 10.5669 12.4507 9.8507 14.3816C8.95628 16.7922 9.96535 18.3913 11.4075 19.3096C11.4075 19.3096 10.9546 19.7231 10.2994 19.7752C10.1663 19.7878 10.0375 19.7934 9.91296 19.7934C8.53166 19.7934 7.81695 19.1493 7.81695 19.1493C7.81695 19.1493 7.9358 20.0395 8.65058 20.8665C9.31857 21.6302 10.189 22.0803 11.5194 22.0985C11.5194 22.0985 11.5618 22.7117 10.973 23.2419C10.5952 23.5767 9.72611 23.6863 9.72611 23.6863C9.72611 23.6863 11.3566 24.0141 11.5349 26.4049C11.6326 27.7002 11.9623 28.1502 11.9623 28.1502H11.9354Z" fill="black"/>
<path d="M3.5177 12.7757C3.70028 12.7757 3.8786 12.749 4.04694 12.6913C4.52252 12.5352 4.82395 12.1597 5.14239 11.7701C5.46796 11.3707 5.8345 10.9207 6.46991 10.5846L7.12383 10.2358L6.51662 9.81245C6.46566 9.78006 6.00995 9.47485 5.39434 9.47485C4.88768 9.47485 4.41782 9.68024 4.0314 10.074C3.08883 11.0304 2.24392 11.1077 2.21275 11.1091L1.55469 11.1471L1.82504 11.7476C2.09668 12.3425 2.80858 12.7757 3.5177 12.7757ZM4.35549 10.3918C4.70649 10.0332 5.07589 9.92633 5.39434 9.92633C5.88398 9.92633 6.25478 10.1851 6.25478 10.1851C4.93013 10.8869 4.65839 12.0106 3.90118 12.2638C3.77668 12.3074 3.64645 12.3271 3.5177 12.3271C2.96146 12.3271 2.42363 11.9698 2.23967 11.5605C2.23967 11.5592 3.25864 11.4973 4.35549 10.3918Z" fill="black"/>
<path d="M6.48848 18.0131C6.41773 16.3142 6.85651 14.9359 7.54428 13.801C7.16072 14.9837 7.21312 16.4323 8.51803 17.7839C8.51803 17.7839 5.92235 14.6941 9.5511 11.5268C11.0033 10.3216 12.5912 9.57753 13.4078 9.05015C10.4541 10.0079 9.0119 8.95312 9.0119 8.95312C9.95445 9.76605 11.1759 9.75192 11.9346 9.63377C11.7293 9.73366 11.5141 9.83776 11.2862 9.9601C8.79259 11.306 6.55499 13.5183 6.17143 16.5814V16.5575C5.59263 19.5657 4.30469 20.3378 4.30469 20.3378C5.32939 19.8358 5.9748 18.5025 6.13184 18.0215C6.30314 20.6655 7.60087 22.5009 9.11949 24.2672C9.90779 25.1829 10.1852 26.0731 10.1852 26.0731C10.1852 26.0731 10.031 25.0647 9.34739 24.2434C7.9335 22.5544 6.58755 20.4475 6.48848 18.0131Z" fill="black"/>
<path d="M18.0664 11.8152V12.4227C18.2773 12.1682 18.6849 12.2201 18.6849 12.2201V13.0963C18.6849 13.0963 18.6707 13.5267 18.5165 13.7138H18.958H19.3982C19.2468 13.5282 19.2311 13.0963 19.2311 13.0963V12.2201C19.2311 12.2201 19.6387 12.1682 19.8483 12.4227V11.8152H18.958H18.0664Z" fill="black"/>
<path d="M17.6864 8.21193C17.968 8.4341 18.1308 8.47076 18.1365 8.47488L18.2469 8.5256V7.95317L17.2109 7.52002C17.2109 7.52142 17.2208 7.85188 17.6864 8.21193Z" fill="black"/>
<path d="M20.1527 8.21193C20.6212 7.85188 20.6297 7.52002 20.6297 7.52002L19.5938 7.95317V8.5256L19.7027 8.47488C19.7098 8.47076 19.8711 8.4341 20.1527 8.21193Z" fill="black"/>
<path d="M22.0179 5.88152C22.0179 5.01378 20.5474 4.23315 18.924 4.23315H18.9226H18.9184H18.9142C17.2908 4.23315 15.8203 5.01378 15.8203 5.88152L15.8529 6.09527L16.5011 9.79266L15.8501 10.1682L14.1659 11.1456H14.1716C14.1716 11.1456 13.7923 11.3383 13.6167 11.4578C12.9757 11.9008 12.8398 12.5464 13.212 12.8136C13.304 12.2876 13.7229 11.7362 14.507 11.7362C15.0717 11.7362 15.5019 12.0261 15.8501 12.4605C15.9393 12.5703 16.0242 12.687 16.1034 12.8136C16.201 12.9725 16.2987 13.1117 16.3964 13.2467H12.0586C12.377 13.8838 12.6798 14.5589 12.6798 15.2916V24.8326C12.6798 27.1419 14.4674 28.2445 16.4006 28.2445C17.8952 28.2445 18.0962 28.177 18.9213 28.9927C19.7421 28.1756 19.9431 28.2445 21.4391 28.2445C23.3737 28.2445 25.1584 27.1419 25.1584 24.8326V15.2916C25.1584 14.5589 25.4613 13.8838 25.7811 13.2467H21.4419C21.5381 13.1132 21.6358 12.9725 21.7334 12.8136C21.8141 12.687 21.8975 12.5703 21.9853 12.4605C22.3363 12.0246 22.7651 11.7362 23.3298 11.7362C24.1139 11.7362 24.5314 12.2862 24.6248 12.8136C24.9971 12.5464 24.8626 11.9008 24.2172 11.4578C24.0445 11.3383 23.6652 11.1456 23.6652 11.1456H23.6709L21.9867 10.1682L21.3385 9.79266L21.9867 6.09527L22.0179 5.88152ZM16.4586 6.31188L18.7373 7.07972V10.6364L17.0602 9.75754L16.4586 6.31188ZM16.9299 13.867C17.3036 14.2369 17.6702 14.4662 18.0183 14.5926C17.9729 14.7712 17.9136 15.1398 18.082 15.5069C18.2192 15.8021 18.4684 16.03 18.8264 16.1819C18.866 16.5476 19.0981 17.0975 19.7421 17.3408C19.4605 17.6235 19.1859 17.8892 19.0741 17.9975L16.4629 17.9567C16.4035 17.9273 16.3029 17.8611 16.2578 17.7669C16.252 17.7543 16.2436 17.7473 16.2394 17.7332L16.6652 17.8021C16.6752 17.8035 16.6836 17.8035 16.6922 17.8035C16.7743 17.8035 16.8464 17.7473 16.8606 17.6628C16.8747 17.5687 16.8111 17.4828 16.7191 17.4688L16.1954 17.3871L16.7771 15.3915L16.2266 14.2396L15.3435 15.1679L15.2896 17.2437L14.6967 17.1508C14.6046 17.1327 14.5169 17.2002 14.5014 17.2915C14.4872 17.3829 14.5494 17.4688 14.6428 17.4856L14.8919 17.5236C14.8028 17.5742 14.7448 17.6136 14.7377 17.6192L14.6867 17.6544L14.6725 17.7163C14.5282 18.2985 14.8551 18.8512 15.2076 19.0987L15.1948 19.1719C15.1807 19.2619 15.2005 19.3491 15.2543 19.4222C15.3052 19.4968 15.3845 19.5418 15.4722 19.5573C15.4906 19.56 15.5104 19.5614 15.5274 19.5614C15.6802 19.5614 15.8133 19.456 15.8515 19.3027C15.9831 19.3182 16.1034 19.3209 16.1855 19.3209H16.2549L19.6813 19.9355L19.7393 19.8976C20.0124 19.7078 21.0526 18.9539 21.3937 18.705C21.4871 18.7852 21.5918 18.8583 21.7192 18.9187C21.6088 19.2872 21.6018 19.854 22.0391 20.3012H13.3068V15.2931C13.3068 14.8079 13.1639 14.3198 12.9955 13.8697H16.9299V13.867ZM21.1644 18.449C20.8177 18.7021 19.9261 19.3491 19.6034 19.5741L16.4898 19.0186C16.4969 18.9905 16.5039 18.9638 16.5111 18.9356C16.552 18.7753 16.5931 18.5559 16.596 18.2985L19.2128 18.3407L19.2623 18.2901C19.302 18.2506 20.1314 17.4547 20.5545 16.9962C20.655 17.1214 20.7809 17.2409 20.945 17.3464C20.8885 17.6501 20.9125 18.0833 21.1644 18.449ZM15.952 17.9132C16.0256 18.0665 16.1586 18.1691 16.2506 18.2268C16.2478 18.3703 16.2336 18.5939 16.1954 18.7907C16.1869 18.8344 16.1756 18.8752 16.1628 18.916C16.1558 18.9412 16.1487 18.9623 16.143 18.9792C16.0058 18.9792 15.7354 18.9623 15.5146 18.8822C15.2699 18.7922 14.9047 18.3463 14.9896 17.8556C15.0958 17.7908 15.3406 17.6544 15.5699 17.6544C15.7468 17.653 15.8671 17.7359 15.952 17.9132ZM15.6279 17.2958L15.6802 15.3029L16.1303 14.8289L16.4134 15.4168L15.8557 17.3296L15.6279 17.2958ZM21.1362 27.6271C20.9663 27.6271 20.8092 27.6299 20.6677 27.6355L21.0385 26.4893C21.0966 26.3305 20.8035 26.1265 20.6832 25.9479C20.8658 26.0618 21.3385 26.3107 21.5664 26.4106C21.5424 26.4472 21.1362 27.6271 21.1362 27.6271ZM22.2995 26.3248L22.0575 27.5793C21.9033 27.6003 21.7391 27.6117 21.5706 27.6187L21.8254 26.412C21.9018 26.0534 20.9324 25.9423 20.454 25.2377C20.2205 25.4992 19.7803 25.5766 19.3388 25.5766C18.9354 25.5766 18.5321 25.5119 18.2872 25.4641C18.2249 25.4542 18.1655 25.4472 18.1075 25.4472C17.9659 25.4472 17.8371 25.4908 17.748 25.6398L17.6772 25.758L16.3568 25.4486L16.0284 25.9887C15.9817 26.0758 15.9788 26.1504 16.0539 26.232L16.143 26.329C16.0822 26.5203 15.8077 26.8085 15.8077 26.8085L15.611 26.5653C15.4552 26.3923 15.4807 26.0772 15.6435 25.7848L16.1671 24.9057L17.2852 25.0661L17.1111 24.6723C16.8776 24.1519 17.2328 23.4895 17.271 23.1084C17.2583 23.2237 17.1521 23.249 17.0276 23.249C16.9144 23.249 16.7884 23.228 16.7049 23.228C16.6724 23.228 16.644 23.2308 16.6285 23.242L16.3256 23.4247L16.0864 23.2153C16.0581 23.1745 16.0482 23.0802 16.119 23.0099L16.6724 22.394L16.0186 21.6359L16.9342 22.093L17.213 21.7568C17.2895 21.8314 17.2569 22.0269 17.2569 22.0269C17.5428 22.0339 18.3438 22.4741 18.3863 23.5008C18.3891 23.5317 18.3891 23.5668 18.3891 23.6006C18.3891 23.6006 18.3962 23.6133 18.4104 23.6343C18.467 23.7117 18.6226 23.91 18.8207 23.9283L20.086 24.052H20.0916C20.2304 24.052 20.5064 23.8904 20.8601 23.8904C21.0526 23.8904 21.2677 23.9396 21.4971 24.083C21.4971 24.083 21.6116 23.9931 21.7985 23.9831C21.8126 23.9818 21.8283 23.9818 21.8424 23.9818C22.4099 23.9818 22.6448 24.4908 22.9491 24.9141C23.1784 25.2362 23.4841 25.7144 23.4841 25.7144C23.3709 25.848 23.2661 25.9212 23.0907 25.9212C23.0426 25.9212 22.9873 25.9169 22.9279 25.9056C22.3193 25.7946 22.2316 24.5513 21.8849 24.4529C21.8665 24.4473 21.8467 24.4459 21.8296 24.4459C21.7178 24.4459 21.6684 24.5443 21.6684 24.5443C21.8267 24.9676 21.7348 25.1392 21.9047 25.4655C22.032 25.7073 22.2584 25.9071 22.3518 26.0013C22.3518 26.0041 22.3264 26.187 22.2995 26.3248ZM15.5048 25.1378L15.5628 25.2826C15.5246 25.4093 15.0859 25.5892 15.0859 25.5892L14.991 25.3839C14.8905 25.1646 14.9117 24.7946 15.2175 24.5682L15.9279 24.1379L16.6809 24.2968C16.6667 24.5345 16.8096 24.7117 16.8096 24.7117L16.0199 24.5612L15.5472 24.886C15.468 24.9409 15.4623 25.0435 15.5048 25.1378ZM22.4184 27.5104L22.635 26.3881C22.6462 26.3219 22.6604 26.2446 22.6703 26.18C22.7312 26.2053 22.7963 26.2263 22.867 26.239C22.9477 26.2544 23.0227 26.2615 23.0907 26.2615C23.4219 26.2615 23.6143 26.0885 23.7431 25.9409L23.9101 25.7481L23.7742 25.5372C23.7615 25.5161 23.4615 25.0435 23.2294 24.7201C23.184 24.6568 23.1401 24.5935 23.0963 24.5246C22.8331 24.1337 22.5033 23.6428 21.8424 23.6428L21.7829 23.6442C21.674 23.6513 21.5806 23.6724 21.5056 23.7005C21.2975 23.6035 21.0838 23.5542 20.8615 23.5542C20.5884 23.5542 20.3577 23.6287 20.2049 23.6808C20.161 23.6934 20.1214 23.7075 20.0903 23.7132L18.8547 23.5922C18.8392 23.5893 18.7882 23.5598 18.7273 23.4867V23.4811L18.9948 23.3742C18.9198 22.4896 18.065 21.9453 17.5881 21.761C17.5669 21.6724 17.5244 21.5839 17.4494 21.5122L17.1833 21.2618L16.9497 21.5403L16.8351 21.6823L15.1057 20.9762L16.2308 22.3799L15.7864 23.0479C15.6236 23.2194 15.8034 23.391 15.8034 23.391L16.2619 23.7046L16.7375 23.5289C16.7544 23.5289 16.7686 23.5331 16.7842 23.5345C16.7616 23.6063 16.7318 23.8875 16.712 23.9663L15.8869 23.8045L15.0193 24.2911C14.5735 24.6161 14.5126 25.1547 14.6783 25.5231L14.7745 25.7327L14.9117 26.028L15.2146 25.9028C15.2189 25.9015 15.2231 25.9001 15.2259 25.8973C15.117 26.2432 15.1609 26.5723 15.3561 26.7889L15.5401 27.0195L15.785 27.3275L16.0539 27.0406C16.1332 26.9619 16.3893 26.6764 16.4686 26.4316L16.5266 26.2446L16.395 26.1012L16.3737 26.0758L16.521 25.8339L17.5979 26.0857L17.84 26.1405L17.9687 25.9296L18.0395 25.8143C18.0523 25.7904 18.0565 25.7862 18.1061 25.7862C18.1443 25.7862 18.1825 25.7904 18.2235 25.7988C18.6297 25.8748 19.0047 25.9127 19.3373 25.9127C19.66 25.9127 19.8524 25.9001 20.0832 25.8241C20.0832 25.8241 20.662 26.4767 20.6818 26.5021L20.3281 27.5877L20.3124 27.6539C19.6416 27.7073 19.3147 27.8535 18.9198 28.2459C18.3466 27.6806 17.9404 27.6215 16.3993 27.6215C14.5551 27.6215 13.3054 26.547 13.3054 24.8312V20.6359H24.5314L24.5343 24.8312C24.5356 26.2235 23.7134 27.194 22.4184 27.5104ZM24.8456 13.867C24.6744 14.317 24.5314 14.805 24.5314 15.2902L24.5329 18.4208C23.8747 18.3112 23.7969 17.6066 23.794 17.5757L23.7813 17.4322L23.6398 17.4195C23.3539 17.3928 23.1642 17.2719 23.0043 17.1171C22.6816 16.7965 22.6802 16.2761 22.6816 16.2719C22.6774 16.2987 22.3264 16.7867 22.734 17.3196C22.9052 17.5447 23.1529 17.6825 23.4742 17.7373C23.5492 18.1283 23.8422 18.6797 24.5329 18.764V20.297H22.5911C21.6952 19.8019 22.0744 18.93 22.0928 18.8934L22.1693 18.7275L21.9981 18.6628C21.0286 18.3055 21.2947 17.3436 21.3088 17.3029L21.3484 17.1622L21.2168 17.1003C20.4157 16.7318 20.5248 15.7375 20.5347 15.6967C20.2884 15.895 20.1992 16.3001 20.3691 16.6966C20.2771 16.8007 20.154 16.9273 20.0195 17.0651C19.1901 16.8556 19.1647 16.0975 19.1647 16.0624L19.1632 15.9456L19.0543 15.9034C18.7302 15.7839 18.5079 15.6052 18.399 15.3648C18.2759 15.099 18.3197 14.8205 18.3538 14.6869C18.4486 14.708 18.5433 14.7235 18.6339 14.7305C18.7273 14.7404 18.8236 14.746 18.9198 14.746H18.9255H18.9326C19.0288 14.746 19.1237 14.7404 19.2171 14.7305C19.7336 14.6799 20.3125 14.4591 20.9154 13.8656H24.8456V13.867ZM21.8197 10.7026L22.5868 11.1456H22.5981L22.7906 11.2567C22.3575 11.3763 22.0264 11.5914 21.749 11.8741C21.7391 11.8826 21.7292 11.8938 21.7192 11.9037C21.6556 11.9712 21.5918 12.0442 21.5324 12.1188C21.5211 12.1329 21.5098 12.1483 21.4971 12.1639C21.4376 12.2398 21.3825 12.3171 21.3286 12.3987C21.3201 12.4128 21.3102 12.4268 21.3003 12.4395C21.2366 12.5337 21.1758 12.635 21.115 12.7391C20.5686 13.6743 19.6968 14.2326 18.9213 14.2341C18.1471 14.2326 17.2753 13.6743 16.729 12.7391C16.6695 12.6378 16.6101 12.5394 16.5464 12.4437C16.5336 12.4254 16.5223 12.4071 16.5111 12.3916C16.4573 12.3143 16.4035 12.2384 16.3483 12.1667C16.3341 12.1469 16.3213 12.1315 16.3072 12.1147C16.2478 12.0428 16.1869 11.9712 16.126 11.905C16.1134 11.8952 16.1048 11.8826 16.0921 11.8713C15.8133 11.5886 15.4835 11.3748 15.049 11.2567L15.2443 11.1456H15.2528L16.0199 10.7026L16.8082 10.2539L18.9142 11.3931L18.9184 11.3889L18.924 11.3931L21.03 10.2539L21.8197 10.7026ZM20.7809 9.75894L19.1024 10.6378V7.07972L21.3796 6.31188L20.7809 9.75894ZM18.9198 6.68878L16.4233 5.70848C16.6356 5.20921 17.6149 4.78449 18.9198 4.78311C20.2261 4.78449 21.2055 5.20921 21.4164 5.70848L18.9198 6.68878Z" fill="black"/>
<path d="M49.8381 21.5733V15.9419H53.1621V13.8927H44.0938V15.9419H47.4177V21.5733H49.8381ZM56.5512 13.8927H54.1308V21.5733H56.5512V13.8927ZM58.3223 13.8927V21.5733H60.5491V17.3296L64.696 21.5733H66.7614V13.8927H64.5345V18.1041L60.4845 13.8927H58.3223ZM71.5187 18.6689L74.3098 21.5733H77.4241L73.5354 17.5716L77.2786 13.8927H74.342L71.5187 16.781H70.873V13.8927H68.5332V21.5733H70.873V18.6689H71.5187ZM82.2383 13.6829C79.0918 13.6829 77.2038 15.4578 77.2038 17.749C77.2038 20.0404 79.0918 21.8153 82.2383 21.8153C85.3694 21.8153 87.2568 20.0404 87.2568 17.749C87.2568 15.4578 85.3694 13.6829 82.2383 13.6829ZM82.2383 19.9435C80.6735 19.9435 79.6725 19.0076 79.6725 17.749C79.6725 16.4905 80.6735 15.5707 82.2383 15.5707C83.7878 15.5707 84.8042 16.4905 84.8042 17.749C84.8042 19.0076 83.7878 19.9435 82.2383 19.9435ZM96.1297 13.8927H88.3683V21.5733H90.7076V18.8947H95.7911V17.2005H90.7076V15.845H96.1297V13.8927ZM104.938 13.8927H97.1762V21.5733H99.5161V18.8947H104.6V17.2005H99.5161V15.845H104.938V13.8927Z" fill="white"/>
</g>
<defs>
<clipPath id="clip0_821_616">
<rect width="105" height="33.5776" fill="white"/>
</clipPath>
</defs>
</svg>
