<svg width="63" height="21" viewBox="0 0 63 21" fill="none" xmlns="http://www.w3.org/2000/svg">
<g clip-path="url(#clip0_453_558)">
<path d="M18.404 0.334367L13.0557 13.9454L10.8932 2.37587C10.6472 1.08437 9.64066 0.334367 8.52394 0.334367H-0.219737L-0.335938 0.911867C1.45837 1.30937 3.49564 1.93787 4.73461 2.60987C5.48764 3.02537 5.70646 3.38687 5.94943 4.37087L10.0496 20.3309H15.4824L23.8095 0.334367H18.404ZM26.0083 0.334367L21.7647 20.3309H26.9016L31.1422 0.334367H26.0083ZM37.8878 5.87537C37.9059 5.15687 38.5835 4.39787 40.0685 4.19537C40.8079 4.10087 42.8331 4.02887 45.139 5.08937L46.0399 0.853368C44.807 0.401868 43.2089 -0.0361328 41.235 -0.0361328C36.1524 -0.0361328 32.5804 2.68637 32.5502 6.57887C32.523 9.45737 35.1066 11.0594 37.0503 12.0224C39.0498 12.9974 39.7274 13.6244 39.7138 14.5109C39.7063 15.8519 38.1172 16.4384 36.6458 16.4609C34.0578 16.5014 32.5592 15.7619 31.361 15.2009L30.4359 19.5809C31.6342 20.1359 33.851 20.6204 36.1524 20.6429C41.5444 20.6429 45.0756 17.9564 45.0937 13.8014C45.1073 8.52137 37.8395 8.23337 37.8878 5.87537ZM52.766 13.2509L55.4974 5.74037L57.0367 13.2509H52.766ZM54.7172 0.334367C54.2463 0.33153 53.7855 0.470046 53.3951 0.73179C53.0046 0.993534 52.7028 1.36632 52.529 1.80137L44.8206 20.3309H50.2231L51.2946 17.3459H57.8712L58.4899 20.3309H63.2556L59.1102 0.334367H54.7187H54.7172Z" fill="#1A1F71"/>
</g>
<defs>
<clipPath id="clip0_453_558">
<rect width="63" height="21" fill="white"/>
</clipPath>
</defs>
</svg>
